<?xml version="1.0" encoding="UTF-8" standalone="no" ?>
<!DOCTYPE svg PUBLIC "-//W3C//DTD SVG 1.1//EN" "http://www.w3.org/Graphics/SVG/1.1/DTD/svg11.dtd">
<svg xmlns="http://www.w3.org/2000/svg" xmlns:xlink="http://www.w3.org/1999/xlink" version="1.1" width="150" height="570" viewBox="0 0 150 570" xml:space="preserve">
<desc>Created with Fabric.js 1.6.7</desc>
<defs></defs>
<rect x="-25" y="-25" rx="0" ry="0" width="50" height="50" style="stroke: none; stroke-width: 1; stroke-dasharray: none; stroke-linecap: butt; stroke-linejoin: miter; stroke-miterlimit: 10; fill: rgb(79,113,185); fill-rule: nonzero; opacity: 1;" transform="translate(75 285)"/>
<path d="M 272.70141 238.71731 C 206.46141 238.71731 152.70146 292.4773 152.70146 358.71731 C 152.70146 493.47282 288.63461 528.80461 381.26391 662.02535 C 468.83815 529.62199 609.82641 489.17075 609.82641 358.71731 C 609.82641 292.47731 556.06651 238.7173 489.82641 238.71731 C 441.77851 238.71731 400.42481 267.08774 381.26391 307.90481 C 362.10311 267.08773 320.74941 238.7173 272.70141 238.71731 z" style="stroke: none; stroke-width: 1; stroke-dasharray: none; stroke-linecap: butt; stroke-linejoin: miter; stroke-miterlimit: 10; fill: rgb(79,113,185); fill-rule: nonzero; opacity: 1;" transform="translate(81.2 100.91) scale(0.22 0.22) translate(-381.263935, -450.3713299999987) " stroke-linecap="round" />
<polygon points="-25 25,0 -25,25 25" style="stroke: rgb(79,113,185); stroke-width: 1; stroke-dasharray: none; stroke-linecap: butt; stroke-linejoin: miter; stroke-miterlimit: 10; fill: rgb(79,113,185); fill-rule: nonzero; opacity: 1;" transform="translate(69.08 208.27)"/></svg>