<svg xmlns="http://www.w3.org/2000/svg" xmlns:xlink="http://www.w3.org/1999/xlink" preserveAspectRatio="xMidYMid" width="28" height="28.062" viewBox="0 0 28 28.062">
  <defs>
    <style>
      .cls-1 {
        fill: #fff;
        fill-rule: evenodd;
      }
    </style>
  </defs>
  <path d="M27.724,10.908 L20.231,18.408 L9.612,7.780 L17.106,0.280 C17.474,-0.089 18.072,-0.089 18.441,0.280 L19.405,1.246 C19.683,1.523 19.760,1.944 19.599,2.302 L19.344,2.867 L19.875,2.611 C20.237,2.437 20.669,2.510 20.953,2.794 L24.026,5.870 C24.345,6.190 24.394,6.690 24.142,7.065 L22.130,10.067 L25.109,8.040 C25.483,7.785 25.986,7.833 26.307,8.154 L27.724,9.572 C28.092,9.941 28.092,10.539 27.724,10.908 ZM16.666,21.976 C16.297,22.345 15.700,22.345 15.331,21.976 L13.273,19.916 C12.878,19.521 12.331,19.329 11.772,19.390 C11.214,19.451 10.722,19.758 10.421,20.230 C6.567,26.282 6.003,26.846 5.818,27.032 C4.490,28.361 2.328,28.363 0.997,27.032 C-0.332,25.701 -0.332,23.537 0.997,22.206 C1.182,22.021 1.746,21.457 7.792,17.599 C8.265,17.297 8.572,16.804 8.633,16.246 C8.694,15.688 8.502,15.141 8.106,14.744 L6.048,12.684 C5.871,12.507 5.771,12.267 5.771,12.016 C5.771,11.766 5.871,11.525 6.048,11.348 L8.217,9.177 L18.835,19.805 L16.666,21.976 ZM4.409,23.617 C3.888,23.095 3.043,23.095 2.522,23.617 C2.001,24.138 2.001,24.984 2.522,25.505 C3.043,26.027 3.888,26.027 4.409,25.505 C4.930,24.984 4.930,24.138 4.409,23.617 Z" class="cls-1"/>
</svg>
