<svg id="Layer_1" data-name="Layer 1" xmlns="http://www.w3.org/2000/svg" viewBox="0 0 1329.23 55.06"><defs><style>.cls-1{fill:#8e8bc1;}</style></defs><title>Icons</title><path class="cls-1" d="M1270.58,256.84V248.1l-14.25,14.25,14.25,14.25v-9.38c13.14,1.39,15.28,7.77,16.33,12C1292.12,260.38,1274.46,257.29,1270.58,256.84Z" transform="translate(-91.72 -236.11)"/><path class="cls-1" d="M1406.7,256.84V248.1l14.25,14.25L1406.7,276.6v-9.38c-13.14,1.39-15.28,7.77-16.33,12C1385.16,260.38,1402.82,257.29,1406.7,256.84Z" transform="translate(-91.72 -236.11)"/><rect class="cls-1" y="8.9" width="15.98" height="15.98" rx="2.29" ry="2.29"/><rect class="cls-1" x="20.64" y="8.9" width="15.98" height="15.98" rx="2.29" ry="2.29"/><rect class="cls-1" y="30.18" width="15.98" height="15.98" rx="2.29" ry="2.29"/><rect class="cls-1" x="20.64" y="30.18" width="15.98" height="15.98" rx="2.29" ry="2.29"/><path class="cls-1" d="M229.53,258c-2.87-1.36-6.94-1.36-9,1.76a14.93,14.93,0,0,1,12.29,4.79C233.13,262.05,232.41,259.34,229.53,258Z" transform="translate(-91.72 -236.11)"/><path class="cls-1" d="M232.49,257.12c0.64-3.13,4.7-12.57,2.71-13.26-1.6-.56-8.5,11.09-8.5,11.09S231.13,255.21,232.49,257.12Z" transform="translate(-91.72 -236.11)"/><circle class="cls-1" cx="114.99" cy="24.5" r="2.87"/><circle class="cls-1" cx="117.11" cy="18.56" r="1.08"/><circle class="cls-1" cx="108.93" cy="19.24" r="1.76"/><path class="cls-1" d="M219,261.65a32.41,32.41,0,0,1-17.48,8,57.67,57.67,0,0,0,6.68,6.75,11.25,11.25,0,0,0,4.43-3.39,15.47,15.47,0,0,1-4,3.76,37.65,37.65,0,0,0,6.2,4.43,19.88,19.88,0,0,0,7.27-5.28,23.25,23.25,0,0,1-6.16,5.88c4.09,2.05,8.21,2.62,11.12-.56,3.47-3.79,4.87-11.17,5.11-13.89C231.21,267.08,229,262.21,219,261.65Z" transform="translate(-91.72 -236.11)"/><path class="cls-1" d="M453.07,243.13H431.36a2.55,2.55,0,0,0-2.55,2.55v2.45h17.77a2.55,2.55,0,0,1,2.55,2.55v27.08h3.94a2.55,2.55,0,0,0,2.55-2.55V245.69A2.55,2.55,0,0,0,453.07,243.13Z" transform="translate(-91.72 -236.11)"/><path class="cls-1" d="M444.93,249.52H423.22a2.51,2.51,0,0,0-.66.1,2.55,2.55,0,0,0-1.89,2.46V281.6a2.55,2.55,0,0,0,2.55,2.55h21.71a2.55,2.55,0,0,0,2.31-1.48,2.51,2.51,0,0,0,.24-1.07V252.07A2.55,2.55,0,0,0,444.93,249.52Z" transform="translate(-91.72 -236.11)"/><path class="cls-1" d="M340.14,249h-8.68a2.52,2.52,0,0,0,.14-0.8v-1.92a2.55,2.55,0,0,0-2.55-2.55H323a2.55,2.55,0,0,0-2.55,2.55v1.92a2.54,2.54,0,0,0,.14.8h-8.68a2.55,2.55,0,0,0-2.55,2.55v2.24a2.55,2.55,0,0,0,2.55,2.55h28.25a2.55,2.55,0,0,0,2.55-2.55v-2.24A2.55,2.55,0,0,0,340.14,249Z" transform="translate(-91.72 -236.11)"/><path class="cls-1" d="M333.94,257.7v20.91h-2V257.7H327v20.91h-2V257.7h-4.79v20.91h-2V257.7h-5.43V281a2.55,2.55,0,0,0,2.55,2.55h21.39a2.55,2.55,0,0,0,2.55-2.55V257.7h-5.32Z" transform="translate(-91.72 -236.11)"/><path class="cls-1" d="M529,281.2a2.55,2.55,0,0,0,2.55,2.55h32.56a2.55,2.55,0,0,0,2.55-2.55v-5.84H529v5.84Z" transform="translate(-91.72 -236.11)"/><path class="cls-1" d="M564.12,243.53H531.56a2.55,2.55,0,0,0-2.55,2.55v28h37.67v-28A2.55,2.55,0,0,0,564.12,243.53Zm-16.3,23.66L539.64,259l0.78-.81,6.84,6.84V250.8h1.11V265l6.84-6.84L556,259Z" transform="translate(-91.72 -236.11)"/><path class="cls-1" d="M674.19,246.08a2.55,2.55,0,0,0-2.55-2.55H639.08a2.55,2.55,0,0,0-2.55,2.55v5.84h37.67v-5.84Z" transform="translate(-91.72 -236.11)"/><path class="cls-1" d="M639.08,283.75h32.56a2.55,2.55,0,0,0,2.55-2.55v-28H636.52v28A2.55,2.55,0,0,0,639.08,283.75Zm16.3-23.66,8.18,8.17-0.78.81-6.84-6.84v14.24h-1.11V262.24L648,269.08l-0.81-.81Z" transform="translate(-91.72 -236.11)"/><polygon class="cls-1" points="692.99 5.11 692.99 25.45 656.68 25.45 692.99 5.11"/><path class="cls-1" d="M748.4,265.72l36.3,20.34V265.72H748.4Zm34.33,16.62-26-14.53,26,0v14.49Z" transform="translate(-91.72 -236.11)"/><polygon class="cls-1" points="822.33 45.68 801.99 45.68 801.99 9.38 822.33 45.68"/><path class="cls-1" d="M889.55,245.49l-20.34,36.3h20.34v-36.3Zm-16.62,34.33,14.53-26,0,26H872.93Z" transform="translate(-91.72 -236.11)"/><path class="cls-1" d="M1037.18,264.28l8.12,8.12-1,1-9.7-9.75,9.7-9.7,1,0.92-8.12,8.12h16.9v1.32h-16.9Z" transform="translate(-91.72 -236.11)"/><path class="cls-1" d="M1015.93,263l-8.12-8.12,1-1,9.7,9.75-9.7,9.7-1-.92,8.12-8.12H999V263h16.9Z" transform="translate(-91.72 -236.11)"/><rect class="cls-1" x="932" y="6.53" width="5.67" height="42"/><path class="cls-1" d="M1151.45,274.27l-8.12,8.12-1-1,9.75-9.7,9.7,9.7-0.92,1-8.12-8.12v16.9h-1.32v-16.9Z" transform="translate(-91.72 -236.11)"/><path class="cls-1" d="M1152.72,253l8.12-8.12,1,1-9.75,9.7-9.7-9.7,0.92-1,8.12,8.12v-16.9h1.32V253Z" transform="translate(-91.72 -236.11)"/><rect class="cls-1" x="1039.37" y="24.7" width="42" height="5.67"/></svg>