<?xml version="1.0" encoding="UTF-8" standalone="no" ?>
<!DOCTYPE svg PUBLIC "-//W3C//DTD SVG 1.1//EN" "http://www.w3.org/Graphics/SVG/1.1/DTD/svg11.dtd">
<svg xmlns="http://www.w3.org/2000/svg" xmlns:xlink="http://www.w3.org/1999/xlink" version="1.1" width="403" height="283.5925925925926" viewBox="0 0 403 283.59" xml:space="preserve">
<desc>Created with Fabric.js 1.6.7</desc>
<defs></defs>
	<g transform="translate(202.5 142.5)">
		<text font-family="Shadows Into Light" font-size="15" font-weight="normal" style="stroke: none; stroke-width: 1; stroke-dasharray: none; stroke-linecap: butt; stroke-linejoin: miter; stroke-miterlimit: 10; fill: rgb(79,113,185); fill-rule: nonzero; opacity: 1;" >
			<tspan x="-41.24" y="-5.11" fill="rgb(79, 113, 185)">fdgdfgdfgdfgdfg</tspan>
			<tspan x="-41.24" y="14.56" fill="rgb(79, 113, 185)">dfgdfgdfg</tspan>
		</text>
	</g>
<polygon points="49,90 57,60 87,74 64,47 91,34 64,34 71,0 47,26 25,0 31,32 0,32 31,47 7,74 39,60 " style="stroke: none; stroke-width: 1; stroke-dasharray: none; stroke-linecap: butt; stroke-linejoin: miter; stroke-miterlimit: 10; fill: rgb(79,113,185); fill-rule: nonzero; opacity: 1;" transform="translate(76.13 59.26) translate(-45.5, -45)  "/>
<polygon points="45,90 75,80 90,52 85,20 60,0 30,0 8,20 0,53 17,78 " style="stroke: rgb(79,113,185); stroke-width: 1; stroke-dasharray: none; stroke-linecap: butt; stroke-linejoin: miter; stroke-miterlimit: 10; fill: rgb(79,113,185); fill-rule: nonzero; opacity: 1;" transform="translate(308.97 58.27) translate(-45, -45)  "/>
</svg>